<svg id="visual" viewBox="0 0 900 450" width="900" height="450" xmlns="http://www.w3.org/2000/svg" xmlns:xlink="http://www.w3.org/1999/xlink" version="1.1"><rect x="0" y="0" width="900" height="450" fill="#001220"></rect><path d="M0 263L13.7 260.5C27.3 258 54.7 253 82 258.3C109.3 263.7 136.7 279.3 163.8 274.5C191 269.7 218 244.3 245.2 245.5C272.3 246.7 299.7 274.3 327 279.7C354.3 285 381.7 268 409 262C436.3 256 463.7 261 491 257.7C518.3 254.3 545.7 242.7 573 238.2C600.3 233.7 627.7 236.3 654.8 249.7C682 263 709 287 736.2 291.7C763.3 296.3 790.7 281.7 818 266C845.3 250.3 872.7 233.7 886.3 225.3L900 217L900 451L886.3 451C872.7 451 845.3 451 818 451C790.7 451 763.3 451 736.2 451C709 451 682 451 654.8 451C627.7 451 600.3 451 573 451C545.7 451 518.3 451 491 451C463.7 451 436.3 451 409 451C381.7 451 354.3 451 327 451C299.7 451 272.3 451 245.2 451C218 451 191 451 163.8 451C136.7 451 109.3 451 82 451C54.7 451 27.3 451 13.7 451L0 451Z" fill="#351287"></path><path d="M0 295L13.7 301.3C27.3 307.7 54.7 320.3 82 316.7C109.3 313 136.7 293 163.8 278.8C191 264.7 218 256.3 245.2 268.2C272.3 280 299.7 312 327 323.2C354.3 334.3 381.7 324.7 409 321.8C436.3 319 463.7 323 491 322.8C518.3 322.7 545.7 318.3 573 314.8C600.3 311.3 627.7 308.7 654.8 297.7C682 286.7 709 267.3 736.2 273.2C763.3 279 790.7 310 818 318.7C845.3 327.3 872.7 313.7 886.3 306.8L900 300L900 451L886.3 451C872.7 451 845.3 451 818 451C790.7 451 763.3 451 736.2 451C709 451 682 451 654.8 451C627.7 451 600.3 451 573 451C545.7 451 518.3 451 491 451C463.7 451 436.3 451 409 451C381.7 451 354.3 451 327 451C299.7 451 272.3 451 245.2 451C218 451 191 451 163.8 451C136.7 451 109.3 451 82 451C54.7 451 27.3 451 13.7 451L0 451Z" fill="#094daf"></path><path d="M0 324L13.7 330.3C27.3 336.7 54.7 349.3 82 353.5C109.3 357.7 136.7 353.3 163.8 347C191 340.7 218 332.3 245.2 326.3C272.3 320.3 299.7 316.7 327 313.8C354.3 311 381.7 309 409 305.8C436.3 302.7 463.7 298.3 491 296C518.3 293.7 545.7 293.3 573 299.2C600.3 305 627.7 317 654.8 330.2C682 343.3 709 357.7 736.2 365C763.3 372.3 790.7 372.7 818 363.8C845.3 355 872.7 337 886.3 328L900 319L900 451L886.3 451C872.7 451 845.3 451 818 451C790.7 451 763.3 451 736.2 451C709 451 682 451 654.8 451C627.7 451 600.3 451 573 451C545.7 451 518.3 451 491 451C463.7 451 436.3 451 409 451C381.7 451 354.3 451 327 451C299.7 451 272.3 451 245.2 451C218 451 191 451 163.8 451C136.7 451 109.3 451 82 451C54.7 451 27.3 451 13.7 451L0 451Z" fill="#007bc9"></path><path d="M0 394L13.7 390.7C27.3 387.3 54.7 380.7 82 376.5C109.3 372.3 136.7 370.7 163.8 366.3C191 362 218 355 245.2 357.7C272.3 360.3 299.7 372.7 327 380.2C354.3 387.7 381.7 390.3 409 390C436.3 389.7 463.7 386.3 491 380.3C518.3 374.3 545.7 365.7 573 359.7C600.3 353.7 627.7 350.3 654.8 348.2C682 346 709 345 736.2 352.3C763.3 359.7 790.7 375.3 818 376.8C845.3 378.3 872.7 365.7 886.3 359.3L900 353L900 451L886.3 451C872.7 451 845.3 451 818 451C790.7 451 763.3 451 736.2 451C709 451 682 451 654.8 451C627.7 451 600.3 451 573 451C545.7 451 518.3 451 491 451C463.7 451 436.3 451 409 451C381.7 451 354.3 451 327 451C299.7 451 272.3 451 245.2 451C218 451 191 451 163.8 451C136.7 451 109.3 451 82 451C54.7 451 27.3 451 13.7 451L0 451Z" fill="#00a4d3"></path><path d="M0 434L13.7 429C27.3 424 54.7 414 82 413.8C109.3 413.7 136.7 423.3 163.8 428.2C191 433 218 433 245.2 425C272.3 417 299.7 401 327 393.7C354.3 386.3 381.7 387.7 409 391.7C436.3 395.7 463.7 402.3 491 401.8C518.3 401.3 545.7 393.7 573 391C600.3 388.3 627.7 390.7 654.8 398.2C682 405.7 709 418.3 736.2 418C763.3 417.7 790.7 404.3 818 395.7C845.3 387 872.7 383 886.3 381L900 379L900 451L886.3 451C872.7 451 845.3 451 818 451C790.7 451 763.3 451 736.2 451C709 451 682 451 654.8 451C627.7 451 600.3 451 573 451C545.7 451 518.3 451 491 451C463.7 451 436.3 451 409 451C381.7 451 354.3 451 327 451C299.7 451 272.3 451 245.2 451C218 451 191 451 163.8 451C136.7 451 109.3 451 82 451C54.7 451 27.3 451 13.7 451L0 451Z" fill="#24c7c7"></path></svg>